<svg width="38" height="40" viewBox="0 0 38 40" fill="none" xmlns="http://www.w3.org/2000/svg">
<path d="M19 1.25C9.16275 1.25 1.1875 9.645 1.1875 20C1.1875 30.355 9.16275 38.75 19 38.75C28.8372 38.75 36.8125 30.355 36.8125 20C36.8125 9.645 28.8372 1.25 19 1.25ZM29.9155 31.49C28.4894 32.9906 26.7961 34.1803 24.9325 34.9911C23.069 35.8019 21.0719 36.2178 19.0554 36.215C10.5608 36.215 3.67333 28.9667 3.67333 20.0233C3.67333 11.08 10.5592 3.83167 19.0554 3.83167C27.55 3.83167 34.4375 11.08 34.4375 20.0233C34.4399 22.2258 34.0142 24.4055 33.1867 26.4283L33.2247 26.3233C32.4478 28.2532 31.3241 30.0069 29.9155 31.4883V31.49Z" fill="#15CE3D"/>
<path d="M11.2812 15.625H14.25V18.75H11.2812V15.625Z" fill="#15CE3D"/>
<path d="M23.75 15.625H26.7188V18.75H23.75V15.625Z" fill="#15CE3D"/>
<path d="M25.1068 24C24.6472 25.2157 23.852 26.2585 22.8238 26.9938C21.7956 27.7291 20.5817 28.1231 19.3387 28.125H18.661C17.4249 28.1249 16.2169 27.7364 15.1918 27.0093C14.1668 26.2821 13.3712 25.2493 12.9072 24.0433L12.8929 24L12.7979 23.75H10.2393L10.6873 24.9283C11.992 28.295 15.0779 30.625 18.6816 30.625H19.3197C21.0301 30.6254 22.7019 30.0895 24.1218 29.0856C25.5417 28.0817 26.6453 26.6553 27.2918 24.9883L27.3123 24.9283L27.7604 23.75H25.2018L25.1068 24Z" fill="#15CE3D"/>
</svg>
